PLOT

A hot-shot race-car named Lightning McQueen gets waylaid in Radiator Springs, where he finds
the true meaning of friendship and family.
 
http://www.imdb.com/title/tt0317219/

Encoded By .......: BigPerm1828
Runtime ..........: 1h 56mn
File Size ........: 1.34 GB
Resolution .......: 704x396
IMDb URL .........: http://www.imdb.com/title/tt0317219/
Genre ............: Animation,Adventure,Comedy,Family,Sport
Language .........: English
Video
ID : 0
Format : MPEG-4 Visual
Format profile : Advanced Simple@L5
Format settings, BVOP : Yes
Format settings, QPel : No
Format settings, GMC : No warppoints
Format settings, Matrix : Default (H.263)
Codec ID : XVID
Codec ID/Hint : XviD
Duration : 1h 56mn
Bit rate : 1 199 Kbps
Width : 704 pixels
Height : 396 pixels
Display aspect ratio : 16:9
Frame rate : 23.976 fps
Color space : YUV
Chroma subsampling : 4:2:0
Bit depth : 8 bits
Scan type : Progressive
Compression mode : Lossy
Bits/(Pixel*Frame) : 0.179
Stream size : 996 MiB (73%)
Writing library : XviD 1.2.1 (UTC 2008-12-04)

Audio
ID : 1
Format : AC-3
Format/Info : Audio Coding 3
Mode extension : CM (complete main)
Codec ID : 2000
Duration : 1h 56mn
Bit rate mode : Constant
Bit rate : 448 Kbps
Channel(s) : 6 channels
Channel positions : Front: L C R, Side: L R, LFE
Sampling rate : 48.0 KHz
Bit depth : 16 bits
Compression mode : Lossy
Video delay : 42ms
Stream size : 372 MiB (27%)
Alignment : Split accross interleaves
Interleave, duration : 500 ms (11.99 video frames)
Interleave, preload duration : 500 ms
 
http://leetleech.org/images/22971662093619682661.png
 
http://leetleech.org/images/50517323255141666707.png
 
http://leetleech.org/images/14215969932339764601.png
 
http://leetleech.org/images/15500429282139867432.png